<svg width="40" height="41" viewBox="0 0 40 41" fill="none" xmlns="http://www.w3.org/2000/svg">
<g id="circum:calendar-date">
<path id="Vector" d="M30.7249 8.75828H27.4916V6.40828C27.4916 5.97495 27.1083 5.55828 26.6583 5.57495C26.2083 5.59161 25.8249 5.94161 25.8249 6.40828V8.75828H14.1583V6.40828C14.1583 5.97495 13.7749 5.55828 13.3249 5.57495C12.8749 5.59161 12.4916 5.94161 12.4916 6.40828V8.75828H9.27494C8.16987 8.75828 7.11007 9.19727 6.32866 9.97867C5.54726 10.7601 5.10828 11.8199 5.10828 12.9249V31.2583C5.10828 32.3633 5.54726 33.4232 6.32866 34.2046C7.11007 34.986 8.16987 35.4249 9.27494 35.4249H30.7249C31.83 35.4249 32.8898 34.986 33.6712 34.2046C34.4526 33.4232 34.8916 32.3633 34.8916 31.2583V12.9249C34.8916 11.8199 34.4526 10.7601 33.6712 9.97867C32.8898 9.19727 31.83 8.75828 30.7249 8.75828ZM33.2249 31.2583C33.2249 32.6416 32.1083 33.7583 30.7249 33.7583H9.27494C7.89161 33.7583 6.77494 32.6416 6.77494 31.2583V17.2249H33.2249V31.2583ZM33.2249 15.5583H6.77494V12.9249C6.77494 11.5416 7.89161 10.4249 9.27494 10.4249H12.4916V11.4083C12.4916 11.8416 12.8749 12.2583 13.3249 12.2416C13.7749 12.2249 14.1583 11.8749 14.1583 11.4083V10.4249H25.8249V11.4083C25.8249 11.8416 26.2083 12.2583 26.6583 12.2416C27.1083 12.2249 27.4916 11.8749 27.4916 11.4083V10.4249H30.7249C32.1083 10.4249 33.2249 11.5416 33.2249 12.9249V15.5583Z" fill="#E71C5C"/>
<path id="Vector_2" d="M19.1534 29.1217V23.355C19.1533 23.3328 19.1474 23.3111 19.1362 23.2919C19.125 23.2728 19.1089 23.257 19.0895 23.2461C19.0702 23.2353 19.0483 23.2297 19.0261 23.2301C19.004 23.2305 18.9823 23.2368 18.9634 23.2483L17.9 23.9017C17.8621 23.9247 17.8188 23.9373 17.7744 23.9381C17.7301 23.9389 17.6863 23.9278 17.6476 23.9061C17.609 23.8844 17.5767 23.8528 17.5543 23.8145C17.5319 23.7763 17.5201 23.7327 17.52 23.6883V22.6033C17.52 22.4283 17.6117 22.265 17.7634 22.175L19.0367 21.4133C19.1142 21.3667 19.2029 21.3419 19.2934 21.3417H20.3367C20.4023 21.3417 20.4674 21.3546 20.528 21.3797C20.5887 21.4049 20.6438 21.4417 20.6902 21.4881C20.7367 21.5346 20.7735 21.5897 20.7986 21.6503C20.8238 21.711 20.8367 21.776 20.8367 21.8417V29.12C20.8367 29.2526 20.784 29.3798 20.6902 29.4736C20.5965 29.5673 20.4693 29.62 20.3367 29.62H19.655C19.5892 29.6207 19.524 29.6083 19.463 29.5835C19.4021 29.5587 19.3467 29.5221 19.3 29.4757C19.2533 29.4294 19.2163 29.3742 19.1911 29.3134C19.166 29.2526 19.1531 29.1875 19.1534 29.1217Z" fill="#E71C5C"/>
</g>
</svg>
