<svg width="40" height="41" viewBox="0 0 40 41" fill="none" xmlns="http://www.w3.org/2000/svg">
<g id="local">
<g id="Group">
<path id="Vector" d="M32.8571 14.7857C32.8571 21.9 20 39.0714 20 39.0714C20 39.0714 7.14282 21.9 7.14282 14.7857C7.14282 11.3758 8.49741 8.10554 10.9086 5.69436C13.3198 3.28318 16.59 1.92859 20 1.92859C23.4099 1.92859 26.6802 3.28318 29.0913 5.69436C31.5025 8.10554 32.8571 11.3758 32.8571 14.7857Z" stroke="#E71C5C" stroke-linecap="round" stroke-linejoin="round"/>
<path id="Vector_2" d="M19.9999 19.0714C22.3669 19.0714 24.2857 17.1526 24.2857 14.7857C24.2857 12.4188 22.3669 10.5 19.9999 10.5C17.633 10.5 15.7142 12.4188 15.7142 14.7857C15.7142 17.1526 17.633 19.0714 19.9999 19.0714Z" stroke="#E71C5C" stroke-linecap="round" stroke-linejoin="round"/>
</g>
</g>
</svg>
