<svg width="49" height="49" viewBox="0 0 49 49" fill="none" xmlns="http://www.w3.org/2000/svg">
<g id="iconamoon:search-thin">
<path id="Vector" d="M42.8751 42.5L34.0081 33.814M34.0081 33.814C35.5248 32.3283 36.728 30.5644 37.5488 28.6231C38.3697 26.6819 38.7921 24.6012 38.7921 22.5C38.7921 20.3988 38.3697 18.3182 37.5488 16.377C36.728 14.4357 35.5248 12.6718 34.0081 11.186C32.4914 9.70027 30.6907 8.52169 28.709 7.71759C26.7273 6.9135 24.6034 6.49963 22.4584 6.49963C20.3134 6.49963 18.1894 6.9135 16.2077 7.71759C14.226 8.52169 12.4254 9.70027 10.9087 11.186C7.84551 14.1867 6.12463 18.2565 6.12463 22.5C6.12463 26.7436 7.84551 30.8134 10.9087 33.814C13.9719 36.8147 18.1264 38.5005 22.4584 38.5005C26.7904 38.5005 30.9449 36.8147 34.0081 33.814Z" stroke="white" stroke-width="1.66667" stroke-linecap="round" stroke-linejoin="round"/>
</g>
</svg>
